<?xml version="1.0" encoding="UTF-8"?>
<svg xmlns="http://www.w3.org/2000/svg" xmlns:xlink="http://www.w3.org/1999/xlink" width="32px" height="32px" viewBox="0 0 32 32" version="1.1">
<g id="surface1">
<path style=" stroke:none;fill-rule:nonzero;fill:rgb(100%,100%,100%);fill-opacity:1;" d="M 16 0 C 7.179688 0 0 7.179688 0 16 C 0 24.820312 7.179688 32 16 32 C 24.820312 32 32 24.820312 32 16 C 32 7.179688 24.820312 0 16 0 Z M 16 30 C 8.28125 30 2 23.71875 2 16 C 2 8.28125 8.28125 2 16 2 C 23.71875 2 30 8.28125 30 16 C 30 23.71875 23.71875 30 16 30 Z M 16 30 "/>
<path style=" stroke:none;fill-rule:nonzero;fill:rgb(100%,100%,100%);fill-opacity:1;" d="M 22 10 C 19.914062 10 18.074219 11.074219 17 12.695312 L 17 5 C 17 4.449219 16.550781 4 16 4 C 12.691406 4 10 6.691406 10 10 C 10 12.085938 11.074219 13.925781 12.695312 15 L 5 15 C 4.449219 15 4 15.449219 4 16 C 4 19.308594 6.691406 22 10 22 C 12.085938 22 13.925781 20.925781 15 19.304688 L 15 27 C 15 27.550781 15.449219 28 16 28 C 19.308594 28 22 25.308594 22 22 C 22 19.914062 20.925781 18.074219 19.304688 17 L 27 17 C 27.550781 17 28 16.550781 28 16 C 28 12.691406 25.308594 10 22 10 Z M 10 20 C 8.140625 20 6.570312 18.722656 6.128906 17 L 13.875 17 C 13.429688 18.722656 11.859375 20 10 20 Z M 12 10 C 12 8.140625 13.277344 6.570312 15 6.128906 L 15 13.875 C 13.277344 13.429688 12 11.859375 12 10 Z M 16 17 C 15.449219 17 15 16.550781 15 16 C 15 15.449219 15.449219 15 16 15 C 16.550781 15 17 15.449219 17 16 C 17 16.550781 16.550781 17 16 17 Z M 20 22 C 20 23.859375 18.722656 25.429688 17 25.871094 L 17 18.125 C 18.722656 18.570312 20 20.140625 20 22 Z M 18.128906 15 C 18.570312 13.277344 20.140625 12 22 12 C 23.859375 12 25.429688 13.277344 25.871094 15 L 18.125 15 Z M 18.128906 15 "/>
</g>
</svg>
