<svg xmlns="http://www.w3.org/2000/svg" xmlns:xlink="http://www.w3.org/1999/xlink" version="1.1" id="Layer_1" x="0px" y="0px" viewBox="0 0 512 512" xml:space="preserve"><style type="text/css">.st0{fill:none;}</style><g id="XMLID_48_"><path id="XMLID_317_" class="st0" d="M256.5 240.4c-8.5 0-15.4 6.9-15.4 15.4s6.9 15.4 15.4 15.4 15.4-6.9 15.4-15.4-6.9-15.4-15.4-15.4z" fill="none"></path><path id="XMLID_324_" class="st0" d="M256 40.3c-57.3 0-111.4 22.5-152.3 63.4-40.8 40.9-63.4 95-63.4 152.3 0 119.5 96.7 216.7 215.7 216.7 57.3 0 111.6-22.7 152.8-63.9 41.2-41.2 63.9-95.4 63.9-152.8 0-118.9-97.2-215.6-216.7-215.7zM120 276H99c-11 0-20-9-20-20s9-20 20-20h21c11 0 20 9 20 20s-9 20-20 20zm50.7-106.7c-3.7 3.1-8.3 4.6-12.8 4.6-5.7 0-11.5-2.5-15.4-7.2l-13.4-16.2c-7.1-8.5-5.9-21.1 2.6-28.2 8.5-7.1 21.1-5.9 28.2 2.6l13.4 16.2c7.1 8.5 5.9 21.1-2.6 28.2zm85.8 141.9c-30.5 0-55.4-24.8-55.4-55.4 0-23.7 14.9-43.9 35.9-51.8V83c0-11 9-20 20-20s20 9 20 20v121.4c20.4 8.2 34.9 28.1 34.9 51.4 0 30.5-24.9 55.4-55.4 55.4zm94-138.3c-4.5 0-9-1.5-12.8-4.6-8.5-7.1-9.7-19.7-2.6-28.2l13.4-16.2c7.1-8.5 19.7-9.7 28.2-2.6s9.7 19.7 2.6 28.2l-13.4 16.2c-3.9 4.7-9.6 7.2-15.4 7.2zM427 256c0 11-9 20-20 20h-21c-11 0-20-9-20-20s9-20 20-20h21c11 0 20 9 20 20z" fill="none"></path><path id="XMLID_392_" d="M437 75.2C388.4 26.8 324.1 0 256 0 188 0 123.9 26.9 75.4 75.3 27 123.7.3 188.1.3 256.1c0 68.1 26.6 132.4 75 181.1C123.9 486 188 513 256 513c34.4 0 67.8-7 99.5-20.5 30.5-13 57.9-31.8 81.6-55.4s42.2-51.1 55.2-81.6c13.5-31.7 20.4-65.2 20.4-99.5 0-68.1-26.9-132.3-75.7-180.8zm-28.2 333.6c-41.2 41.2-95.4 63.9-152.8 63.9-118.9 0-215.7-97.2-215.7-216.7 0-57.3 22.5-111.4 63.4-152.3 40.9-40.9 94.9-63.4 152.3-63.4 119.5 0 216.7 96.7 216.7 215.7 0 57.3-22.7 111.6-63.9 152.8z" style="fill: rgb(255, 255, 255);"></path><path id="XMLID_395_" d="M277 204.4V83c0-11-9-20-20-20s-20 9-20 20v121c-21 7.9-35.9 28.1-35.9 51.8 0 30.5 24.8 55.4 55.4 55.4s55.4-24.8 55.4-55.4c0-23.3-14.5-43.2-34.9-51.4zm-20.5 66.8c-8.5 0-15.4-6.9-15.4-15.4s6.9-15.4 15.4-15.4 15.4 6.9 15.4 15.4-6.9 15.4-15.4 15.4z" style="fill: rgb(255, 255, 255);"></path><path id="XMLID_397_" d="M120 236H99c-11 0-20 9-20 20s9 20 20 20h21c11 0 20-9 20-20s-9-20-20-20z" style="fill: rgb(255, 255, 255);"></path><path id="XMLID_398_" d="M386 236c-11 0-20 9-20 20s9 20 20 20h21c11 0 20-9 20-20s-9-20-20-20h-21z" style="fill: rgb(255, 255, 255);"></path><path id="XMLID_399_" d="M376.7 121.3c-8.5-7.1-21.1-5.9-28.2 2.6l-13.4 16.2c-7.1 8.5-5.9 21.1 2.6 28.2 3.7 3.1 8.3 4.6 12.8 4.6 5.7 0 11.5-2.5 15.4-7.2l13.4-16.2c7.1-8.5 5.9-21.1-2.6-28.2z" style="fill: rgb(255, 255, 255);"></path><path id="XMLID_400_" d="M159.9 125c-7.1-8.5-19.7-9.7-28.2-2.6s-9.7 19.7-2.6 28.2l13.4 16.2c4 4.8 9.7 7.2 15.4 7.2 4.5 0 9-1.5 12.8-4.6 8.5-7.1 9.7-19.7 2.6-28.2L159.9 125z" style="fill: rgb(255, 255, 255);"></path></g><metadata><rdf:rdf xmlns:rdf="http://www.w3.org/1999/02/22-rdf-syntax-ns#" xmlns:rdfs="http://www.w3.org/2000/01/rdf-schema#" xmlns:dc="http://purl.org/dc/elements/1.1/"><rdf:description about="https://iconscout.com/legal#licenses" dc:title="page,speed,optimization" dc:description="page,speed,optimization" dc:publisher="Iconscout" dc:date="2018-04-23" dc:format="image/svg+xml" dc:language="en"><dc:creator><rdf:bag><rdf:li>Neelpari Artist</rdf:li></rdf:bag></dc:creator></rdf:description></rdf:rdf></metadata></svg>