<?xml version="1.0" encoding="UTF-8"?>
<svg width="256" height="256" version="1.1"
     xmlns="http://www.w3.org/2000/svg"
     xmlns:xlink="http://www.w3.org/1999/xlink">
  <defs>
    <linearGradient id="Gradient" x1="0" x2="0" y1="0" y2="1">
      <stop offset="0%" style="stop-color:#26A269;stop-opacity:1" />
      <stop offset="100%" style="stop-color:#3D3846;stop-opacity:1" />
    </linearGradient>
    <filter id="alpha-to-white">
      <feColorMatrix in="SourceGraphic" type="matrix"
                     values="0 0 0 0 1 0 0 0 0 1 0 0 0 0 1 0 0 0 1 0"/>
    </filter>
    <g id="child-svg"><svg xmlns="http://www.w3.org/2000/svg" xmlns:svg="http://www.w3.org/2000/svg" version="1.1" id="Layer_1" viewBox="0 0 183 126" style="fill:#525252" height="16px" width="16px">
  <g style="fill:#8dc63f" id="g12">
    <path d="m 97.8,105.3 h 4.2 v 15.3 h 9.5 v 3.8 H 97.8 Z" id="path2" />
    <path d="m 114.9,105.3 h 4.2 v 19.1 h -4.2 z" id="path4" />
    <path d="m 123.9,105.3 h 3.9 l 9,11.8 v -11.8 h 4.2 v 19.1 h -3.6 l -9.3,-12.2 v 12.2 h -4.2 z" id="path6" />
    <path d="m 153.4,124.7 c -2.6,0 -4.6,-0.7 -6.1,-2.1 -1.5,-1.4 -2.2,-3.5 -2.2,-6.4 v -10.9 h 4.2 v 10.8 c 0,1.6 0.4,2.7 1.1,3.5 0.7,0.8 1.7,1.2 3,1.2 1.3,0 2.3,-0.4 3,-1.1 0.7,-0.8 1.1,-1.9 1.1,-3.4 v -11 h 4.2 v 10.8 c 0,1.5 -0.2,2.7 -0.6,3.8 -0.4,1.1 -1,2 -1.7,2.7 -0.7,0.7 -1.6,1.3 -2.7,1.6 -0.8,0.3 -2,0.5 -3.3,0.5 z" id="path8" />
    <path d="m 171.3,114.7 -6.4,-9.4 h 4.9 l 4,6.2 4,-6.2 h 4.8 l -6.4,9.3 6.7,9.8 H 178 l -4.3,-6.6 -4.3,6.6 h -4.8 z" id="path10" />
  </g>
  <path d="m 8.6,81.9 h 2 L 19,100.5 H 16.8 L 14.6,95.6 H 4.5 l -2.2,4.9 H 0.2 Z m 5.1,11.8 -4.2,-9.4 -4.2,9.4 z" id="path14" />
  <path d="M 21.7,92.7 V 82 h 2.1 v 10.6 c 0,4 2.1,6.2 5.6,6.2 3.4,0 5.6,-2.1 5.6,-6.1 V 82 h 2 v 10.6 c 0,5.4 -3.1,8.2 -7.7,8.2 -4.5,-0.1 -7.6,-2.9 -7.6,-8.1 z" id="path16" />
  <path d="M 46.9,83.9 H 40.7 V 82 h 14.5 v 1.9 H 49 v 16.5 h -2.1 z" id="path18" />
  <path d="m 57,91.3 v 0 c 0,-5.1 3.8,-9.6 9.4,-9.6 5.6,0 9.4,4.4 9.4,9.5 0,0 0,0 0,0.1 0,5.1 -3.8,9.5 -9.4,9.5 -5.6,0 -9.4,-4.4 -9.4,-9.5 z m 16.7,0 v 0 c 0,-4.2 -3.1,-7.7 -7.3,-7.7 -4.2,0 -7.2,3.4 -7.2,7.6 v 0.1 c 0,4.2 3.1,7.6 7.3,7.6 4.1,-0.1 7.2,-3.4 7.2,-7.6 z" id="path20" />
  <path d="m 80.2,82 h 2.1 L 89,92.1 95.7,82 h 2.1 v 18.5 h -2.1 v -15 L 89,95.4 v 0 l -6.7,-9.9 v 14.9 h -2 V 82 Z" id="path22" />
  <path d="M 129.2,83.9 H 123 V 82 h 14.5 v 1.9 h -6.2 v 16.5 h -2.1 z" id="path24" />
  <path d="m 141.6,82 h 2.1 v 18.5 h -2.1 z" id="path26" />
  <path d="m 147.5,82 h 2.3 L 156.4,97.9 163,82 h 2.2 l -7.9,18.6 h -1.8 z" id="path28" />
  <path d="m 168.8,82 h 13.3 v 1.9 h -11.3 v 6.3 H 181 v 1.9 h -10.1 v 6.5 h 11.4 v 1.9 h -13.5 z" id="path30" />
  <rect x="89.6" y="10.1" width="3.8" height="16.8" id="rect32" />
  <rect x="13.8411" y="53.9585" transform="rotate(-45)" width="3.8" height="16.8" id="rect34" />
  <rect x="139.1" y="59.5" width="16.8" height="3.8" id="rect36" />
  <rect x="31.4" y="59.5" width="16.8" height="3.8" id="rect38" />
  <path d="m 27.7,68.9 c 2.1,-34.7 31,-62.4 66.2,-62.4 35.2,0 64.2,27.6 66.2,62.4 h 6.4 C 164.4,30.6 132.7,0.1 93.9,0.1 55.1,0.1 23.4,30.6 21.3,68.9 Z" id="path40" />
  <g style="fill:#8dc63f" id="g54">
    <circle cx="91.5" cy="69.9" r="6.7" id="circle42" />
    <rect x="24.6871" y="113.0055" transform="rotate(-45)" width="52" height="3.8" id="rect44" />
    <rect x="70.9" y="33" width="9.2" height="9.2" id="rect46" />
    <rect x="81.6" y="33" width="9.2" height="9.2" id="rect48" />
    <rect x="92.3" y="33" width="9.2" height="9.2" id="rect50" />
    <rect x="102.9" y="33" width="9.2" height="9.2" id="rect52" />
  </g>
  <g id="g66">
    <path d="m 19.1,108.7 -1.5,1.4 c -1.1,-1 -2.2,-1.8 -3.5,-2.4 -1.3,-0.5 -2.5,-0.8 -3.7,-0.8 -1.5,0 -2.9,0.4 -4.2,1.1 -1.3,0.7 -2.4,1.7 -3.1,3 -0.7,1.2 -1.1,2.6 -1.1,4 0,1.4 0.4,2.8 1.1,4.1 0.8,1.3 1.8,2.3 3.2,3 1.3,0.7 2.8,1.1 4.4,1.1 1.9,0 3.6,-0.5 4.9,-1.6 1.3,-1.1 2.1,-2.5 2.4,-4.3 h -6 v -1.8 h 8.2 c 0,2.9 -0.9,5.2 -2.6,7 -1.7,1.7 -4,2.6 -6.9,2.6 -3.5,0 -6.3,-1.2 -8.3,-3.6 -1.6,-1.8 -2.4,-4 -2.4,-6.4 0,-1.8 0.5,-3.5 1.4,-5 0.9,-1.5 2.1,-2.8 3.7,-3.6 1.6,-0.9 3.3,-1.3 5.3,-1.3 1.6,0 3.1,0.3 4.5,0.9 1.5,0.4 2.9,1.3 4.2,2.6 z" id="path56" />
    <path d="m 23.9,105.5 h 3.8 c 2.1,0 3.5,0.1 4.3,0.3 1.1,0.3 2,0.8 2.7,1.7 0.7,0.8 1.1,1.9 1.1,3.1 0,1 -0.2,1.9 -0.7,2.7 -0.5,0.8 -1.2,1.4 -2.1,1.8 -0.9,0.4 -2.1,0.6 -3.7,0.6 l 6.8,8.8 H 33.8 L 27,115.7 h -1.1 v 8.8 H 24 v -19 z m 1.9,1.8 v 6.4 h 3.3 c 1.3,0 2.2,-0.1 2.8,-0.4 0.6,-0.2 1.1,-0.6 1.4,-1.2 0.3,-0.5 0.5,-1.1 0.5,-1.8 0,-0.6 -0.2,-1.2 -0.5,-1.7 -0.3,-0.5 -0.8,-0.9 -1.4,-1.1 -0.6,-0.2 -1.5,-0.3 -2.8,-0.3 h -3.3 z" id="path58" />
    <path d="m 47.6,105.5 8.8,18.9 h -2 l -3,-6.2 h -8.2 l -2.9,6.2 h -2.1 l 8.9,-18.9 z m -0.3,4 -3.2,6.9 h 6.5 z" id="path60" />
    <path d="m 59.3,124.4 v -18.9 h 3.9 c 2.8,0 4.9,0.2 6.2,0.7 1.8,0.6 3.3,1.8 4.3,3.3 1,1.6 1.6,3.5 1.6,5.7 0,1.9 -0.4,3.6 -1.2,5 -0.8,1.4 -1.9,2.5 -3.2,3.2 -1.3,0.7 -3.1,1 -5.5,1 z m 1.8,-1.8 h 2.2 c 2.6,0 4.4,-0.2 5.4,-0.5 1.4,-0.5 2.5,-1.3 3.4,-2.5 0.8,-1.2 1.2,-2.7 1.2,-4.4 0,-1.8 -0.4,-3.4 -1.3,-4.7 -0.9,-1.3 -2.1,-2.2 -3.7,-2.7 -1.2,-0.4 -3.1,-0.5 -5.9,-0.5 h -1.3 z" id="path62" />
    <path d="m 79,105.5 h 10.9 v 1.9 h -9 v 5.9 h 8.9 v 1.9 h -8.9 v 7.4 h 8.9 v 1.9 H 79 Z" id="path64" />
  </g>
  <g id="g72">
    <path d="m 105.4,96.8 v -7.4 h -3.7 v 11 h 11 v -3.6 z" style="fill:#0397d6" id="path68" />
    <path d="m 101.7,87.6 h 3.7 v -1.9 h 11 v 11.1 h -1.8 v 3.6 h 5.5 V 82 h -18.4 z" style="fill:#003f5e" id="path70" />
  </g>
</svg></g>
  </defs>
  <rect
      width="256"
      height="256"
      fill="url(#Gradient)"
      ry="128"
      x="0"
      y="0" />
  <use xlink:href="#child-svg" filter="url(#alpha-to-white)"
       transform="matrix(8,0,0,8,64,64)" />
</svg>
