<svg version="1.1" id="Icons" xmlns="http://www.w3.org/2000/svg" xmlns:xlink="http://www.w3.org/1999/xlink" x="0px" y="0px" viewBox="0 0 32 32" style="enable-background:new 0 0 32 32;" xml:space="preserve">
<style type="text/css">
	.st0{fill:none;stroke:#000000;stroke-width:2;stroke-linecap:round;stroke-linejoin:round;stroke-miterlimit:10;}
	.st1{fill:none;stroke:#000000;stroke-width:2;stroke-linejoin:round;stroke-miterlimit:10;}
</style>
<path class="st0" d="M12,17.81V6c0-1.66-1.34-3-3-3S6,4.34,6,6v11.81C4.21,18.85,3,20.78,3,23c0,3.31,2.69,6,6,6s6-2.69,6-6
	C15,20.78,13.79,18.85,12,17.81z" id="id_101" style="stroke: rgb(255, 255, 255);"></path>
<circle class="st0" cx="9" cy="23" r="3" id="id_102" style="stroke: rgb(255, 255, 255);"></circle>
<line class="st0" x1="9" y1="17" x2="9" y2="20" id="id_103" style="stroke: rgb(255, 255, 255);"></line>
<line class="st0" x1="22" y1="7" x2="22" y2="12" id="id_104" style="stroke: rgb(255, 255, 255);"></line>
<polyline class="st0" points="24,5 22,7 20,5 " id="id_105" style="stroke: rgb(255, 255, 255);"></polyline>
<line class="st0" x1="17.67" y1="9.5" x2="22" y2="12" id="id_106" style="stroke: rgb(255, 255, 255);"></line>
<polyline class="st0" points="16.94,6.77 17.67,9.5 14.94,10.23 " id="id_107" style="stroke: rgb(255, 255, 255);"></polyline>
<line class="st0" x1="17.67" y1="14.5" x2="22" y2="12" id="id_108" style="stroke: rgb(255, 255, 255);"></line>
<polyline class="st0" points="14.94,13.77 17.67,14.5 16.94,17.23 " id="id_109" style="stroke: rgb(255, 255, 255);"></polyline>
<line class="st0" x1="22" y1="17" x2="22" y2="12" id="id_110" style="stroke: rgb(255, 255, 255);"></line>
<polyline class="st0" points="20,19 22,17 24,19 " id="id_111" style="stroke: rgb(255, 255, 255);"></polyline>
<line class="st0" x1="26.33" y1="14.5" x2="22" y2="12" id="id_112" style="stroke: rgb(255, 255, 255);"></line>
<polyline class="st0" points="27.06,17.23 26.33,14.5 29.06,13.77 " id="id_113" style="stroke: rgb(255, 255, 255);"></polyline>
<line class="st0" x1="26.33" y1="9.5" x2="22" y2="12" id="id_114" style="stroke: rgb(255, 255, 255);"></line>
<polyline class="st0" points="29.06,10.23 26.33,9.5 27.06,6.77 " id="id_115" style="stroke: rgb(255, 255, 255);"></polyline>
</svg>
