<svg version="1.1" id="Icons" xmlns="http://www.w3.org/2000/svg" xmlns:xlink="http://www.w3.org/1999/xlink" x="0px" y="0px" viewBox="0 0 32 32" style="enable-background:new 0 0 32 32;" xml:space="preserve">
<style type="text/css">
	.st0{fill:none;stroke:#000000;stroke-width:2;stroke-linecap:round;stroke-linejoin:round;stroke-miterlimit:10;}
	.st1{fill:none;stroke:#000000;stroke-width:2;stroke-linejoin:round;stroke-miterlimit:10;}
</style>
<path class="st0" d="M12,17.81V6c0-1.66-1.34-3-3-3S6,4.34,6,6v11.81C4.21,18.85,3,20.78,3,23c0,3.31,2.69,6,6,6s6-2.69,6-6
	C15,20.78,13.79,18.85,12,17.81z" id="id_101" style="stroke: rgb(255, 255, 255);"></path>
<circle class="st0" cx="9" cy="23" r="3" id="id_102" style="stroke: rgb(255, 255, 255);"></circle>
<line class="st0" x1="9" y1="6" x2="9" y2="20" id="id_103" style="stroke: rgb(255, 255, 255);"></line>
<circle class="st0" cx="20" cy="13" r="4" id="id_104" style="stroke: rgb(255, 255, 255);"></circle>
<line class="st0" x1="20" y1="4" x2="20" y2="6" id="id_105" style="stroke: rgb(255, 255, 255);"></line>
<line class="st0" x1="20" y1="22" x2="20" y2="20" id="id_106" style="stroke: rgb(255, 255, 255);"></line>
<line class="st0" x1="26.36" y1="19.36" x2="24.95" y2="17.95" id="id_107" style="stroke: rgb(255, 255, 255);"></line>
<line class="st0" x1="29" y1="13" x2="27" y2="13" id="id_108" style="stroke: rgb(255, 255, 255);"></line>
<line class="st0" x1="26.36" y1="6.64" x2="24.95" y2="8.05" id="id_109" style="stroke: rgb(255, 255, 255);"></line>
</svg>